<svg viewBox="0 0 24 24" fill="none" xmlns="http://www.w3.org/2000/svg">
<g clip-path="url(#clip0_2423_12080)">
<path d="M20.317 4.6556C18.7873 3.95371 17.147 3.4366 15.4319 3.14043C15.4007 3.13471 15.3695 3.14899 15.3534 3.17756C15.1424 3.55278 14.9087 4.04228 14.7451 4.42702C12.9004 4.15085 11.0652 4.15085 9.25832 4.42702C9.09465 4.03373 8.85248 3.55278 8.64057 3.17756C8.62449 3.14995 8.59328 3.13566 8.56205 3.14043C6.84791 3.43565 5.20756 3.95277 3.67693 4.6556C3.66368 4.66131 3.65233 4.67084 3.64479 4.68321C0.533392 9.33157 -0.31895 13.8657 0.0991801 18.3436C0.101072 18.3655 0.11337 18.3864 0.130398 18.3998C2.18321 19.9073 4.17171 20.8225 6.12328 21.4291C6.15451 21.4387 6.18761 21.4272 6.20748 21.4015C6.66913 20.7711 7.08064 20.1064 7.43348 19.4073C7.4543 19.3664 7.43442 19.3178 7.39186 19.3016C6.73913 19.054 6.1176 18.7521 5.51973 18.4093C5.47244 18.3817 5.46865 18.314 5.51216 18.2816C5.63797 18.1874 5.76382 18.0893 5.88396 17.9902C5.90569 17.9722 5.93598 17.9683 5.96153 17.9798C9.88928 19.773 14.1415 19.773 18.023 17.9798C18.0485 17.9674 18.0788 17.9712 18.1015 17.9893C18.2216 18.0883 18.3475 18.1874 18.4742 18.2816C18.5177 18.314 18.5149 18.3817 18.4676 18.4093C17.8697 18.7588 17.2482 19.054 16.5945 19.3007C16.552 19.3169 16.533 19.3664 16.5538 19.4073C16.9143 20.1054 17.3258 20.7701 17.7789 21.4006C17.7978 21.4272 17.8319 21.4387 17.8631 21.4291C19.8241 20.8225 21.8126 19.9073 23.8654 18.3998C23.8834 18.3864 23.8948 18.3664 23.8967 18.3445C24.3971 13.1676 23.0585 8.67066 20.3482 4.68416C20.3416 4.67084 20.3303 4.66131 20.317 4.6556ZM8.02002 15.617C6.8375 15.617 5.86313 14.5314 5.86313 13.1981C5.86313 11.8648 6.8186 10.7791 8.02002 10.7791C9.23087 10.7791 10.1958 11.8743 10.1769 13.1981C10.1769 14.5314 9.22141 15.617 8.02002 15.617ZM15.9947 15.617C14.8123 15.617 13.8379 14.5314 13.8379 13.1981C13.8379 11.8648 14.7933 10.7791 15.9947 10.7791C17.2056 10.7791 18.1705 11.8743 18.1516 13.1981C18.1516 14.5314 17.2056 15.617 15.9947 15.617Z" fill="currentColor"/>
</g>
<defs>
<clipPath id="clip0_2423_12080">
<rect width="24" height="24" fill="white"/>
</clipPath>
</defs>
</svg>
