<svg viewBox="0 0 24 24" fill="none" xmlns="http://www.w3.org/2000/svg">
<g clip-path="url(#clip0_2078_5159)">
<path fill-rule="evenodd" clip-rule="evenodd" d="M12.0153 0.0442138C9.16289 0.0413148 6.40272 1.05429 4.22938 2.9016C2.05604 4.74892 0.611577 7.30983 0.154879 10.1254C-0.30182 12.941 0.25909 15.8271 1.73708 18.2667C3.21506 20.7063 5.51353 22.5398 8.22056 23.4387C8.8174 23.5492 9.03845 23.1734 9.03845 22.8566C9.03845 22.5397 9.03845 21.8177 9.03845 20.8156C5.70059 21.5524 4.99323 19.2093 4.99323 19.2093C4.77081 18.4831 4.29831 17.8591 3.65956 17.4482C2.57642 16.7114 3.74798 16.7114 3.74798 16.7114C4.12767 16.765 4.49017 16.9044 4.80804 17.1188C5.12591 17.3333 5.39082 17.6173 5.5827 17.9493C5.74573 18.2449 5.96553 18.5054 6.22948 18.7159C6.49344 18.9263 6.79637 19.0826 7.12087 19.1757C7.44537 19.2688 7.78505 19.2969 8.12044 19.2584C8.45583 19.2199 8.78032 19.1156 9.07528 18.9514C9.12153 18.3452 9.38285 17.7755 9.81212 17.3451C7.14478 17.043 4.34481 16.0114 4.34481 11.4136C4.3265 10.2221 4.76707 9.06919 5.57532 8.19359C5.21462 7.15773 5.25671 6.02411 5.69322 5.01784C5.69322 5.01784 6.70268 4.69363 8.99423 6.24835C10.962 5.70808 13.039 5.70808 15.0068 6.24835C17.2983 4.69363 18.3004 5.01784 18.3004 5.01784C18.7415 6.02267 18.7863 7.15714 18.4257 8.19359C19.234 9.06919 19.6745 10.2221 19.6562 11.4136C19.6562 16.0261 16.8489 17.0356 14.1742 17.3082C14.461 17.5965 14.6824 17.9431 14.8236 18.3245C14.9647 18.7059 15.0221 19.1132 14.9921 19.5187C14.9921 21.125 14.9921 22.4219 14.9921 22.8124C14.9921 23.2029 15.2057 23.505 15.8173 23.3945C18.5158 22.4871 20.8043 20.6507 22.2745 18.2127C23.7447 15.7748 24.3011 12.8938 23.8444 10.0837C23.3877 7.27362 21.9477 4.71712 19.781 2.87021C17.6144 1.0233 14.8622 0.00608496 12.0153 0V0.0442138Z" fill="currentColor"/>
</g>
<defs>
<clipPath id="clip0_2078_5159">
<rect width="24" height="24" fill="white"/>
</clipPath>
</defs>
</svg>
