<svg viewBox="0 0 24 24" fill="none" xmlns="http://www.w3.org/2000/svg">
<g clip-path="url(#clip0_2365_32)">
<path fill-rule="evenodd" clip-rule="evenodd" d="M10.5718 0.876542C11.4318 0.279251 12.568 0.279251 13.428 0.876542C18.3609 4.30259 20.6656 6.9727 23.4474 11.5676C23.5304 11.7046 23.5732 11.862 23.5713 12.0221L23.4832 19.1223C23.4827 19.1505 23.481 19.1786 23.4779 19.2063C23.2497 21.2621 21.6292 22.9053 19.5839 23.1449C14.7307 23.7135 9.26912 23.7135 4.41593 23.1449C2.37056 22.9053 0.750143 21.2621 0.521835 19.2063C0.518737 19.1786 0.517011 19.1505 0.516663 19.1223L0.428533 12.0221C0.426544 11.862 0.469444 11.7046 0.552366 11.5676C3.33409 6.9727 5.6388 4.30259 10.5718 0.876542ZM5.2 12C4.53726 12 4 12.5373 4 13.2C4 13.8627 4.53726 14.4 5.2 14.4H8.8C9.46274 14.4 10 13.8627 10 13.2C10 12.5373 9.46274 12 8.8 12H5.2ZM5.2 17C4.53726 17 4 17.5373 4 18.2C4 18.8627 4.53726 19.4 5.2 19.4H8.8C9.46274 19.4 10 18.8627 10 18.2C10 17.5373 9.46274 17 8.8 17H5.2ZM13.5 18.2C13.5 17.5373 14.0373 17 14.7 17C15.3627 17 15.9 17.5373 15.9 18.2C15.9 18.8627 15.3627 19.4 14.7 19.4C14.0373 19.4 13.5 18.8627 13.5 18.2ZM14.7 12C14.0373 12 13.5 12.5373 13.5 13.2C13.5 13.8627 14.0373 14.4 14.7 14.4C15.3627 14.4 15.9 13.8627 15.9 13.2C15.9 12.5373 15.3627 12 14.7 12ZM17.5 18.2C17.5 17.5373 18.0373 17 18.7 17C19.3627 17 19.9 17.5373 19.9 18.2C19.9 18.8627 19.3627 19.4 18.7 19.4C18.0373 19.4 17.5 18.8627 17.5 18.2ZM18.7 12C18.0373 12 17.5 12.5373 17.5 13.2C17.5 13.8627 18.0373 14.4 18.7 14.4C19.3627 14.4 19.9 13.8627 19.9 13.2C19.9 12.5373 19.3627 12 18.7 12Z" fill="currentColor"/>
</g>
<defs>
<clipPath id="clip0_2365_32">
<rect width="24" height="24" fill="white"/>
</clipPath>
</defs>
</svg>
