<svg viewBox="0 0 24 24" fill="none" xmlns="http://www.w3.org/2000/svg">
<path fill-rule="evenodd" clip-rule="evenodd" d="M14.6313 0.0911529C16.6056 0.166294 17.7107 1.14862 17.7107 2.8428C17.7107 4.53698 16.6056 5.5193 14.6313 5.59443C14.1395 5.61315 13.7502 5.62898 13.4317 5.64194C12.7161 5.67103 12.3584 5.68558 12.0006 5.68558C11.6428 5.68558 11.285 5.67103 10.5695 5.64194C10.251 5.62898 9.86165 5.61315 9.36987 5.59443C7.39557 5.5193 6.29049 4.53698 6.29049 2.8428C6.29049 1.14862 7.39557 0.166293 9.36987 0.0911523C9.86165 0.0724361 10.251 0.0566021 10.5695 0.0436503C11.285 0.0145502 11.6428 0 12.0006 0C12.3584 0 12.7161 0.0145502 13.4317 0.0436503C13.7502 0.0566021 14.1395 0.0724365 14.6313 0.0911529ZM4.1477 2.81542C3.00019 3.01709 2.10543 3.96245 2.01626 5.14942C1.81001 7.89489 1.70876 10.5634 1.71276 13.2346C1.70876 15.9058 1.81001 18.5745 2.01626 21.3199C2.11169 22.5902 3.12982 23.5838 4.39298 23.6853C9.6167 24.1046 14.3838 24.1046 19.6075 23.6853C20.8706 23.5838 21.8887 22.5903 21.9842 21.3199C22.1904 18.5745 22.2917 15.9058 22.2878 13.2346C22.2917 10.5634 22.1904 7.89489 21.9842 5.14942C21.8951 3.96267 21.0007 3.01747 19.8535 2.81554V2.84268C19.8535 4.18382 19.397 5.47951 18.3381 6.42447C17.3249 7.32849 16.0122 7.68615 14.7128 7.73561C14.2418 7.75354 13.8617 7.76887 13.546 7.78159C12.7733 7.81274 12.3869 7.82832 12.0006 7.82832C11.6142 7.82832 11.2279 7.81274 10.4552 7.78159C10.1395 7.76887 9.75936 7.75354 9.28838 7.73561C7.98897 7.68615 6.67618 7.32849 5.66311 6.42447C4.60413 5.47951 4.14763 4.18382 4.14763 2.84268L4.1477 2.81542ZM22.2878 13.2346V13.2359L21.4307 13.2346L22.2878 13.2333V13.2346ZM1.71276 13.2346L1.71276 13.2333L2.5699 13.2346L1.71276 13.2359L1.71276 13.2346ZM7.09824 12.2754C7.09824 11.6837 7.57795 11.204 8.16967 11.204H15.8304C16.4221 11.204 16.9018 11.6837 16.9018 12.2754C16.9018 12.8671 16.4221 13.3468 15.8304 13.3468H8.16967C7.57795 13.3468 7.09824 12.8671 7.09824 12.2754ZM7.09824 16.829C7.09824 16.2372 7.57795 15.7575 8.16967 15.7575H12.6161C13.2078 15.7575 13.6875 16.2372 13.6875 16.829C13.6875 17.4207 13.2078 17.9004 12.6161 17.9004H8.16967C7.57795 17.9004 7.09824 17.4207 7.09824 16.829Z" fill="currentColor"/>
</svg>
