<svg viewBox="0 0 24 24" fill="none" xmlns="http://www.w3.org/2000/svg">
<path fill-rule="evenodd" clip-rule="evenodd" d="M8.04689 3.81818C9.25833 2.97758 10.7862 2.57143 12.5407 2.57143C14.6812 2.57143 16.4822 3.17746 17.7758 4.42608C18.9123 5.52331 19.5747 7.03709 19.7875 8.84832C20.9534 9.00248 21.9521 9.46428 22.693 10.2626C23.5874 11.2264 24 12.5666 24 14.1216C24 15.868 23.4615 17.249 22.5636 18.3098C21.6787 19.355 20.4905 20.0364 19.2651 20.4859C16.8336 21.3777 14.0453 21.4286 12.5407 21.4286C11.0292 21.4286 7.97484 21.3627 5.27602 20.3745C3.91846 19.8773 2.59702 19.128 1.61099 17.9865C0.610649 16.8284 0 15.3168 0 13.3958C0 11.417 0.533088 9.74698 1.6588 8.56853C2.66398 7.51627 4.05173 6.94988 5.69427 6.83669C6.53021 6.92967 7.33365 7.24894 8.02077 7.69879C8.85435 8.24453 9.43497 8.9281 9.68786 9.49318C9.92957 10.0333 10.5634 10.2752 11.1035 10.0335C11.6436 9.79177 11.8855 9.15797 11.6438 8.61787C11.1877 7.59876 10.2901 6.62326 9.1945 5.90597C8.51683 5.46231 7.73254 5.09698 6.88169 4.88043C7.21939 4.47828 7.608 4.12272 8.04689 3.81818Z" fill="currentColor"/>
</svg>
