<svg viewBox="0 0 24 24" fill="none" xmlns="http://www.w3.org/2000/svg">
<g clip-path="url(#clip0_2365_34)">
<path fill-rule="evenodd" clip-rule="evenodd" d="M0.414187 14.4541C0 15.1582 0 16.1055 0 18C0 19.8945 0 20.8418 0.414187 21.5459C0.668522 21.9783 1.02722 22.34 1.45746 22.5979C2.15811 23.018 3.10535 23.0259 4.99982 23.0417L12 23.1L19.0002 23.0417C20.8946 23.0259 21.8419 23.018 22.5425 22.5979C22.9728 22.34 23.3315 21.9783 23.5858 21.5459C24 20.8418 24 19.8945 24 18C24 16.1055 24 15.1582 23.5858 14.4541C23.3315 14.0217 22.9728 13.66 22.5425 13.4021C21.8419 12.982 20.8946 12.9741 19.0002 12.9583L12 12.9L4.99983 12.9583C3.10535 12.9741 2.15812 12.982 1.45746 13.4021C1.02722 13.66 0.668522 14.0217 0.414187 14.4541ZM4 18C4 17.3372 4.53726 16.8 5.2 16.8H8.8C9.46274 16.8 10 17.3372 10 18C10 18.6627 9.46274 19.2 8.8 19.2H5.2C4.53726 19.2 4 18.6627 4 18ZM15 18C15 17.3372 15.5373 16.8 16.2 16.8C16.8627 16.8 17.4 17.3372 17.4 18C17.4 18.6627 16.8627 19.2 16.2 19.2C15.5373 19.2 15 18.6627 15 18ZM20.2 16.8C19.5373 16.8 19 17.3372 19 18C19 18.6627 19.5373 19.2 20.2 19.2C20.8627 19.2 21.4 18.6627 21.4 18C21.4 17.3372 20.8627 16.8 20.2 16.8Z" fill="currentColor"/>
<path fill-rule="evenodd" clip-rule="evenodd" d="M0.414187 2.45406C0 3.15819 0 4.10546 0 6C0 7.89454 0 8.84181 0.414187 9.54594C0.668522 9.97831 1.02722 10.34 1.45746 10.5979C2.15811 11.018 3.10535 11.0259 4.99982 11.0417L12 11.1L19.0002 11.0417C20.8946 11.0259 21.8419 11.018 22.5425 10.5979C22.9728 10.34 23.3315 9.97831 23.5858 9.54594C24 8.84181 24 7.89454 24 6C24 4.10546 24 3.15819 23.5858 2.45406C23.3315 2.02168 22.9728 1.65998 22.5425 1.40205C21.8419 0.982012 20.8946 0.974118 19.0002 0.95833L12 0.899994L4.99983 0.95833C3.10535 0.974118 2.15811 0.982012 1.45746 1.40205C1.02722 1.65998 0.668522 2.02168 0.414187 2.45406ZM4 6C4 5.33726 4.53726 4.8 5.2 4.8H8.8C9.46274 4.8 10 5.33726 10 6C10 6.66274 9.46274 7.2 8.8 7.2H5.2C4.53726 7.2 4 6.66274 4 6ZM15 6C15 5.33726 15.5373 4.8 16.2 4.8C16.8627 4.8 17.4 5.33726 17.4 6C17.4 6.66274 16.8627 7.2 16.2 7.2C15.5373 7.2 15 6.66274 15 6ZM20.2 4.8C19.5373 4.8 19 5.33726 19 6C19 6.66274 19.5373 7.2 20.2 7.2C20.8627 7.2 21.4 6.66274 21.4 6C21.4 5.33726 20.8627 4.8 20.2 4.8Z" fill="currentColor"/>
</g>
<defs>
<clipPath id="clip0_2365_34">
<rect width="24" height="24" fill="white"/>
</clipPath>
</defs>
</svg>
