<svg viewBox="0 0 24 24" fill="none" xmlns="http://www.w3.org/2000/svg">
<g clip-path="url(#clip0_2365_6272)">
<path fill-rule="evenodd" clip-rule="evenodd" d="M13.2856 0C10.7822 0 8.76903 0.0768096 6.6726 0.223097C4.59451 0.368103 2.94033 2.02236 2.80687 4.10513C2.66397 6.33535 2.58381 8.64141 2.57268 11.0023C2.73293 10.844 2.90772 10.6997 3.09537 10.5713C3.72357 10.1416 4.46671 9.91128 5.2278 9.9103H5.87335H5.87719C6.63828 9.91128 7.38142 10.1416 8.00962 10.5713C8.47761 10.8914 8.86562 11.3111 9.14755 11.7974C9.7128 11.7982 10.2733 11.9256 10.7868 12.1732C11.4721 12.5036 12.0419 13.0328 12.4221 13.6917L12.7414 14.2445C13.1226 14.904 13.2959 15.6632 13.2388 16.4228C13.1961 16.99 13.0265 17.5377 12.7454 18.0266C13.0265 18.5153 13.1961 19.063 13.2388 19.6301C13.2959 20.3897 13.1225 21.149 12.7414 21.8086L12.4213 22.3625C12.258 22.6454 12.0598 22.9042 11.8325 23.1336C12.3002 23.1398 12.7831 23.1429 13.2856 23.1429C15.7891 23.1429 17.8022 23.0661 19.8987 22.9198C21.9768 22.7748 23.6309 21.1205 23.7645 19.0377C23.9187 16.6286 24 14.131 24 11.5714C24 10.8894 23.9942 10.2117 23.9829 9.53901C23.9571 8.0274 23.4739 6.53551 22.53 5.31915C21.1567 3.54945 19.9109 2.30436 18.0279 0.860541C17.3349 0.329016 16.492 0.0441977 15.6313 0.0249816C14.8888 0.00840456 14.1138 0 13.2856 0ZM5.23176 12.0532C4.90147 12.0536 4.57788 12.1535 4.30527 12.34C4.03301 12.5262 3.82313 12.7901 3.70293 13.0972L3.46687 13.6973L2.84637 14.0555L2.21054 13.9588C1.88357 13.9095 1.54833 13.9598 1.25047 14.1034C0.952848 14.2469 0.705391 14.4767 0.540379 14.763L0.220512 15.3165C0.0550747 15.6028 -0.0201693 15.9324 0.0046292 16.2621C0.0294278 16.5919 0.153111 16.9065 0.359515 17.1648L0.812265 17.7321C0.821474 17.8087 0.827592 17.9124 0.827592 18.0266C0.827592 18.1411 0.821433 18.245 0.812174 18.3216L0.360761 18.8902C0.154958 19.1484 0.03231 19.4616 0.00755235 19.7909C-0.0172462 20.1206 0.0579896 20.4501 0.223428 20.7363L0.542919 21.2894C0.707931 21.5757 0.955762 21.8061 1.2534 21.9495C1.55125 22.0932 1.88549 22.1436 2.21246 22.0944L2.9711 21.9789C3.03288 22.0015 3.11743 22.0402 3.20815 22.092C3.29906 22.1438 3.37459 22.1961 3.4242 22.2372L3.70536 22.9545C3.82557 23.2618 4.03589 23.5267 4.30819 23.713C4.58081 23.8994 4.9033 23.9995 5.23359 23.9998H5.87304C6.20333 23.9995 6.52582 23.8994 6.79845 23.713C7.07074 23.5267 7.28107 23.2618 7.40127 22.9545L7.68243 22.2372C7.73205 22.1961 7.80758 22.1438 7.89849 22.092C7.98921 22.0402 8.07375 22.0015 8.13554 21.9789L8.89418 22.0944C9.22114 22.1436 9.55538 22.0932 9.85323 21.9495C10.1509 21.8061 10.3987 21.5757 10.5637 21.2894L10.8832 20.7363C11.0486 20.4501 11.1239 20.1206 11.0991 19.7909C11.0743 19.4616 10.9517 19.1484 10.7459 18.8902L10.2945 18.3216C10.2852 18.245 10.279 18.1411 10.279 18.0266C10.279 17.9124 10.2851 17.8087 10.2944 17.7321L10.7471 17.1648C10.9535 16.9065 11.0772 16.5919 11.102 16.2621C11.1268 15.9324 11.0516 15.6028 10.8861 15.3165L10.5663 14.763C10.4012 14.4767 10.1538 14.2469 9.85615 14.1034C9.55831 13.9598 9.22306 13.9095 8.8961 13.9588L8.26025 14.0555L7.63977 13.6973L7.40371 13.0972C7.2835 12.7901 7.07362 12.5262 6.80136 12.34C6.52875 12.1535 6.20517 12.0536 5.87487 12.0532H5.23176ZM5.5536 16.3255C5.02582 16.3255 4.59634 16.4743 4.29893 16.7717C4.00152 17.0691 3.8527 17.4986 3.8527 18.0264C3.8527 18.5541 4.00152 18.9837 4.29893 19.2811C4.59634 19.5785 5.02582 19.7273 5.5536 19.7273C6.08136 19.7273 6.51084 19.5785 6.80827 19.2811C7.10568 18.9837 7.2545 18.5541 7.2545 18.0264C7.2545 17.4986 7.10568 17.0691 6.80827 16.7717C6.51084 16.4743 6.08136 16.3255 5.5536 16.3255Z" fill="currentColor"/>
</g>
<defs>
<clipPath id="clip0_2365_6272">
<rect width="24" height="24" fill="white"/>
</clipPath>
</defs>
</svg>
