<svg viewBox="0 0 24 24" fill="none" xmlns="http://www.w3.org/2000/svg">
<g clip-path="url(#clip0_2365_6275)">
<path fill-rule="evenodd" clip-rule="evenodd" d="M11.4016 3.42803C9.81982 3.42803 8.53685 4.71083 8.53685 6.2941C8.53685 7.36602 9.12442 8.30214 10.0008 8.79498C10.3259 8.97783 10.5555 9.29285 10.6302 9.6583C10.7049 10.0237 10.6171 10.4036 10.3898 10.6993C8.5397 13.1056 7.8703 14.4647 7.2073 17.1703C7.03829 17.8599 6.34219 18.282 5.65252 18.113C4.96284 17.9439 4.54075 17.2479 4.70976 16.5582C5.36314 13.892 6.07845 12.2752 7.58381 10.1648C6.5857 9.17963 5.96542 7.80975 5.96542 6.2941C5.96542 3.29144 8.39889 0.856613 11.4016 0.856613C14.4043 0.856613 16.8378 3.29144 16.8378 6.2941C16.8378 7.00419 16.2621 7.57981 15.552 7.57981C14.8419 7.57981 14.2663 7.00419 14.2663 6.2941C14.2663 4.71083 12.9834 3.42803 11.4016 3.42803ZM11.2057 6.75819C11.697 6.24553 12.5109 6.22823 13.0235 6.71955C15.005 8.6186 16.0472 10.0466 17.1216 12.4057C18.4734 12.0338 19.9696 12.1814 21.2818 12.9393C23.8818 14.4409 24.7724 17.7663 23.2715 20.3667C21.7705 22.9675 18.4456 23.8589 15.8454 22.3572C15.2305 22.002 15.0199 21.2156 15.375 20.6007C15.7301 19.9858 16.5165 19.7753 17.1314 20.1303C18.5014 20.9216 20.2532 20.4523 21.0445 19.0814C21.8358 17.7103 21.3659 15.9574 19.9959 15.166C19.0681 14.6303 17.9643 14.6711 17.0995 15.1839C16.7785 15.3742 16.3907 15.4156 16.0368 15.2975C15.6829 15.1794 15.3977 14.9134 15.2553 14.5685C14.0971 11.7626 13.2551 10.5032 11.2443 8.57605C10.7316 8.08472 10.7143 7.27084 11.2057 6.75819ZM4.16897 15.1347C4.80569 14.8203 5.06704 14.0493 4.7527 13.4126C4.43837 12.7759 3.66739 12.5146 3.03067 12.8289C0.338323 14.158 -0.766718 17.4185 0.561739 20.1111C1.89031 22.8039 5.15002 23.91 7.8426 22.5807C9.2033 21.9091 10.1575 20.744 10.5981 19.4108C11.6068 19.5727 12.4692 19.6572 13.3316 19.6488C14.5372 19.6371 15.6814 19.4448 17.1675 19.1035C17.8595 18.9446 18.2917 18.2546 18.1326 17.5625C17.9737 16.8705 17.2839 16.4383 16.5918 16.5973C15.1741 16.9229 14.2392 17.0685 13.3068 17.0775C12.3683 17.0866 11.3705 16.958 9.82432 16.6613C9.4596 16.5913 9.08244 16.6825 8.78993 16.9113C8.49741 17.1401 8.31811 17.4842 8.29817 17.855C8.24417 18.8595 7.66485 19.8008 6.7043 20.275C5.28581 20.9753 3.56812 20.3928 2.86778 18.9734C2.16736 17.5536 2.75025 15.835 4.16897 15.1347Z" fill="currentColor"/>
</g>
<defs>
<clipPath id="clip0_2365_6275">
<rect width="24" height="24" fill="white"/>
</clipPath>
</defs>
</svg>
