<svg width="24" height="24" viewBox="0 0 24 24" fill="none" xmlns="http://www.w3.org/2000/svg">
<g clip-path="url(#clip0_12961_56132)">
<path fill-rule="evenodd" clip-rule="evenodd" d="M18.9566 0.990525C18.7199 0.326072 17.7802 0.326076 17.5435 0.99053L17.3559 1.51734C16.8015 3.0738 15.5767 4.29856 14.0202 4.85296L13.4934 5.04062C12.829 5.27727 12.829 6.21697 13.4934 6.45367L14.0202 6.64132C15.5767 7.19572 16.8015 8.42047 17.3559 9.97692L17.5435 10.5037C17.7802 11.1682 18.7199 11.1682 18.9566 10.5037L19.1442 9.97692C19.6987 8.42047 20.9234 7.19572 22.4798 6.64132L23.0066 6.45367C23.6712 6.21697 23.6711 5.27727 23.0066 5.04062L22.4798 4.85296C20.9234 4.29856 19.6987 3.0738 19.1442 1.51735L18.9566 0.990525ZM9.87735 1.3165C9.1316 1.28079 7.86725 1.24707 5.75 1.24707C3.63274 1.24707 2.36842 1.28079 1.62263 1.3165C0.87972 1.35208 0.280904 1.85237 0.255564 2.63586C0.252012 2.74569 0.25 2.86582 0.25 2.99707C0.250001 3.12832 0.252012 3.24845 0.255564 3.35828C0.280904 4.14178 0.879725 4.64207 1.62263 4.67764C2.36842 4.71335 3.63274 4.74707 5.75 4.74707C7.86725 4.74707 9.1316 4.71335 9.87735 4.67764C10.6203 4.64207 11.2191 4.14178 11.2444 3.35828C11.248 3.24845 11.25 3.12832 11.25 2.99707C11.25 2.86582 11.248 2.74569 11.2444 2.63586C11.2191 1.85237 10.6203 1.35208 9.87735 1.3165ZM12 19.2471C18.5274 19.2471 21.341 19.3139 22.4926 19.3586C23.0279 19.3793 23.6006 19.6587 23.7002 20.2929C23.7304 20.4849 23.75 20.7172 23.75 20.9971C23.75 21.2769 23.7304 21.5093 23.7002 21.7013C23.6006 22.3354 23.0279 22.6148 22.4926 22.6356C21.341 22.6802 18.5274 22.7471 12 22.7471C5.47255 22.7471 2.65895 22.6802 1.50733 22.6356C0.972115 22.6148 0.399359 22.3354 0.299733 21.7013C0.269572 21.5093 0.25 21.2769 0.25 20.9971C0.25 20.7172 0.269571 20.4849 0.299732 20.2929C0.399359 19.6587 0.972115 19.3793 1.50733 19.3586C2.65895 19.3139 5.47255 19.2471 12 19.2471ZM9.87735 7.31652C9.1316 7.28077 7.86725 7.24707 5.75 7.24707C3.63274 7.24707 2.36842 7.28077 1.62263 7.31652C0.87972 7.35207 0.280904 7.85237 0.255564 8.63587C0.252012 8.74567 0.25 8.86582 0.25 8.99707C0.250001 9.12832 0.252012 9.24847 0.255564 9.35827C0.280904 10.1418 0.879725 10.6421 1.62263 10.6776C2.36842 10.7134 3.63274 10.7471 5.75 10.7471C7.86725 10.7471 9.1316 10.7134 9.87735 10.6776C10.6203 10.6421 11.2191 10.1418 11.2444 9.35827C11.248 9.24847 11.25 9.12832 11.25 8.99707C11.25 8.86582 11.248 8.74567 11.2444 8.63587C11.2191 7.85237 10.6203 7.35207 9.87735 7.31652ZM12 13.2471C18.5274 13.2471 21.341 13.3139 22.4926 13.3586C23.0279 13.3793 23.6006 13.6587 23.7002 14.2929C23.7304 14.4849 23.75 14.7172 23.75 14.9971C23.75 15.2769 23.7304 15.5093 23.7002 15.7013C23.6006 16.3354 23.0279 16.6148 22.4926 16.6356C21.341 16.6802 18.5274 16.7471 12 16.7471C5.47255 16.7471 2.65895 16.6802 1.50733 16.6356C0.972115 16.6148 0.399359 16.3354 0.299733 15.7013C0.269572 15.5093 0.25 15.2769 0.25 14.9971C0.25 14.7172 0.269571 14.4849 0.299732 14.2929C0.399359 13.6587 0.972115 13.3793 1.50733 13.3586C2.65895 13.3139 5.47255 13.2471 12 13.2471Z" fill="url(#paint0_linear_12961_56132)"/>
</g>
<defs>
<linearGradient id="paint0_linear_12961_56132" x1="4.13041" y1="0.525859" x2="27.168" y2="20.2" gradientUnits="userSpaceOnUse">
<stop stop-color="#F76E85"/>
<stop offset="0.112409" stop-color="#EB638E"/>
<stop offset="0.210766" stop-color="#E05A96"/>
<stop offset="0.359501" stop-color="#D04CA2"/>
<stop offset="0.50104" stop-color="#C13FAD"/>
<stop offset="0.640179" stop-color="#B232B9"/>
<stop offset="0.757728" stop-color="#A527C2"/>
<stop offset="0.872878" stop-color="#981CCB"/>
<stop offset="1" stop-color="#8B10D6"/>
</linearGradient>
<clipPath id="clip0_12961_56132">
<rect width="24" height="24" fill="white"/>
</clipPath>
</defs>
</svg>
