<svg width="24" height="24" viewBox="0 0 24 24" fill="none" xmlns="http://www.w3.org/2000/svg">
<path fill-rule="evenodd" clip-rule="evenodd" d="M2.19534 0.183684C2.93494 0.082818 3.99855 0 5.5 0C7.00145 0 8.06505 0.082818 8.80465 0.183684C10.0498 0.353485 10.8475 1.34441 10.9227 2.5245C10.9656 3.19782 11 4.15609 11 5.5C11 6.8439 10.9656 7.8022 10.9227 8.4755C10.8475 9.6556 10.0498 10.6465 8.80465 10.8163C8.06505 10.9172 7.00145 11 5.5 11C3.99855 11 2.93494 10.9172 2.19534 10.8163C0.950275 10.6465 0.152536 9.6556 0.0773045 8.4755C0.0343805 7.8022 0 6.8439 0 5.5C0 4.15609 0.0343805 3.19782 0.0773045 2.5245C0.152536 1.34441 0.950275 0.353485 2.19534 0.183684ZM5.5 23.5C3.99855 23.5 2.93494 23.4172 2.19534 23.3163C0.950275 23.1465 0.152536 22.1556 0.0773045 20.9755C0.0343805 20.3022 0 19.3439 0 18C0 16.6561 0.0343805 15.6978 0.0773045 15.0245C0.152536 13.8444 0.950275 12.8535 2.19534 12.6837C2.93494 12.5828 3.99855 12.5 5.5 12.5C7.00145 12.5 8.06505 12.5828 8.80465 12.6837C10.0498 12.8535 10.8475 13.8444 10.9227 15.0245C10.9656 15.6978 11 16.6561 11 18C11 19.3439 10.9656 20.3022 10.9227 20.9755C10.8475 22.1556 10.0498 23.1465 8.80465 23.3163C8.06505 23.4172 7.00145 23.5 5.5 23.5ZM23.5 18C23.5 19.5014 23.4172 20.5651 23.3163 21.3046C23.1465 22.5497 22.1556 23.3475 20.9755 23.4227C20.3022 23.4656 19.3439 23.5 18 23.5C16.6561 23.5 15.6978 23.4656 15.0245 23.4227C13.8444 23.3475 12.8535 22.5497 12.6837 21.3046C12.5828 20.5651 12.5 19.5014 12.5 18C12.5 16.4986 12.5828 15.4349 12.6837 14.6953C12.8535 13.4502 13.8444 12.6525 15.0245 12.5773C15.6978 12.5344 16.6561 12.5 18 12.5C19.3439 12.5 20.3022 12.5344 20.9755 12.5773C22.1556 12.6525 23.1465 13.4502 23.3163 14.6953C23.4172 15.4349 23.5 16.4986 23.5 18ZM18.7066 0.743455C18.4699 0.079002 17.5302 0.0790055 17.2936 0.74346L17.1059 1.27027C16.5515 2.82673 15.3267 4.05149 13.7703 4.6059L13.2435 4.79355C12.579 5.0302 12.579 5.9699 13.2435 6.2066L13.7703 6.39425C15.3267 6.94865 16.5515 8.1734 17.1059 9.72985L17.2936 10.2566C17.5302 10.9212 18.4699 10.9211 18.7066 10.2566L18.8943 9.72985C19.4487 8.1734 20.6734 6.94865 22.2299 6.39425L22.7567 6.2066C23.4212 5.9699 23.4211 5.0302 22.7567 4.79355L22.2299 4.6059C20.6734 4.05149 19.4487 2.82673 18.8943 1.27027L18.7066 0.743455Z" fill="url(#paint0_linear_12961_56104)"/>
<defs>
<linearGradient id="paint0_linear_12961_56104" x1="3.88041" y1="0.035555" x2="27.9659" y2="19.5147" gradientUnits="userSpaceOnUse">
<stop stop-color="#F76E85"/>
<stop offset="0.112409" stop-color="#EB638E"/>
<stop offset="0.210766" stop-color="#E05A96"/>
<stop offset="0.359501" stop-color="#D04CA2"/>
<stop offset="0.50104" stop-color="#C13FAD"/>
<stop offset="0.640179" stop-color="#B232B9"/>
<stop offset="0.757728" stop-color="#A527C2"/>
<stop offset="0.872878" stop-color="#981CCB"/>
<stop offset="1" stop-color="#8B10D6"/>
</linearGradient>
</defs>
</svg>
