<svg width="40" height="40" viewBox="0 0 40 40" fill="none" xmlns="http://www.w3.org/2000/svg">
<path fill-rule="evenodd" clip-rule="evenodd" d="M1.00738 7.98631C1.12479 6.27138 1.59113 4.67263 2.33034 3.45076C3.94035 0.789483 7.22517 0.716797 9.93792 0.716797C12.6507 0.716797 15.9354 0.789426 17.5455 3.45076C18.2847 4.67263 18.751 6.27138 18.8685 7.98631C19.037 10.5777 19.1789 13.2398 19.1789 15.953C19.1789 18.6663 19.037 21.3284 18.8685 23.9222C18.751 25.6371 18.2847 27.2359 17.5455 28.4578C15.9355 31.119 12.6505 31.1893 9.93792 31.1893C7.22515 31.1893 3.9404 31.1167 2.33034 28.4553C1.59113 27.2334 1.12479 25.6347 1.00738 23.9197C0.873851 21.8688 0.757025 19.772 0.714233 17.639H6.85789C6.77557 18.221 6.6556 18.8101 6.498 19.4129C6.32075 20.0909 6.55649 20.81 7.1008 21.2515C7.64515 21.693 8.3974 21.7752 9.02426 21.4618C11.0168 20.4655 12.944 18.5382 13.9403 16.5456C14.1916 16.0429 14.1916 15.4511 13.9403 14.9484C12.944 12.9559 11.0168 11.0287 9.02426 10.0324C8.3974 9.71901 7.64515 9.80124 7.1008 10.2427C6.55649 10.6842 6.32075 11.4033 6.498 12.0813C6.6748 12.7575 6.80423 13.4166 6.88629 14.0676H0.718459C0.764339 12.0039 0.878019 9.97504 1.00738 7.98631ZM38.9932 16.0898C38.8758 14.3749 38.4095 12.7761 37.6704 11.5542C36.0604 8.893 32.7755 8.82031 30.0627 8.82031C27.3499 8.82031 24.0652 8.89294 22.4551 11.5542C21.7159 12.7761 21.2496 14.3749 21.1321 16.0898C20.9636 18.6812 20.8217 21.3433 20.8217 24.0566C20.8217 26.7698 20.9636 29.4319 21.1321 32.0256C21.2496 33.7407 21.7159 35.3393 22.4551 36.5613C24.0651 39.2225 27.3501 39.2928 30.0627 39.2928C32.7755 39.2928 36.0601 39.2202 37.6704 36.5588C38.4095 35.337 38.8758 33.7382 38.9932 32.0233C39.1267 29.9724 39.2435 27.8756 39.2864 25.7425H33.1427C33.2249 26.3245 33.3449 26.9136 33.5027 27.5164C33.6798 28.1944 33.4441 28.9136 32.8998 29.355C32.3555 29.7964 31.6032 29.8787 30.9764 29.5653C28.9838 28.569 27.0566 26.6418 26.0603 24.6491C25.809 24.1464 25.809 23.5547 26.0603 23.0519C27.0566 21.0594 28.9838 19.1322 30.9764 18.1359C31.6032 17.8225 32.3555 17.9048 32.8998 18.3462C33.4441 18.7877 33.6798 19.5068 33.5027 20.1848C33.3258 20.861 33.1964 21.52 33.1144 22.1711H39.2821C39.2364 20.1075 39.1227 18.0785 38.9932 16.0898Z" fill="url(#paint0_linear_11344_34726)"/>
<defs>
<linearGradient id="paint0_linear_11344_34726" x1="0.714246" y1="6.3075" x2="43.0325" y2="38.2956" gradientUnits="userSpaceOnUse">
<stop stop-color="#58EFEC"/>
<stop offset="0.5" stop-color="#E85C90"/>
<stop offset="1" stop-color="#FCC9BA"/>
</linearGradient>
</defs>
</svg>
