<svg xmlns="http://www.w3.org/2000/svg" width="756" height="638" fill="none"><g filter="url(#a)"><path fill="url(#b)" d="M150.53 216.739c-18.658 9.675-38.734 5.743-58.65 4.29-44.419 7.259 69.977 178.028 132.728 262.506 21.15 28.161 43.483 65.121 81.26 71.079 29.153 4.597 58.886-6.603 85.426-17.474 22.977-9.412 45.754-21.043 67.14-33.61 15.268-8.971 30.858-17.236 45.7-26.94 23.921-15.639 48.257-34.1 65.875-56.897 8.711-11.273 15.971-23.475 20.157-37.121 4.954-16.148 9.716-33.474 11.087-50.336.906-11.153.904-22.562 1.005-33.761.051-5.701 1.315-11.188 1.415-16.873.108-6.134-.514-10.177-3.993-15.627a91.53 91.53 0 0 0-19.838-22.079c-16.6-13.319-36.593-22.694-57.165-28.144-12.032-3.187-23.629-6.683-34.959-11.891-12.512-5.751-25.556-11.366-37.204-18.764-8.74-5.551-16.471-12.628-23.86-19.838-7.766-7.577-13.221-16.983-20.171-25.233-7.06-8.381-12.641-19.157-21.044-26.304-9.721-8.269-21.222-9.195-33.236-11.505-22.331-4.294-46.591.05-67.403 8.154-13.51 5.261-25.734 12.912-37.77 20.891-12.762 8.461-22.408 19.141-33.424 29.588-12.267 11.634-24.128 23.57-36.185 35.413-8.025 7.882-16.831 15.26-26.891 20.476Z"/><path stroke="#fff" stroke-linecap="round" stroke-width="3.009" d="M150.53 216.739c-18.658 9.675-38.734 5.743-58.65 4.29-44.419 7.259 69.977 178.028 132.728 262.506 21.15 28.161 43.483 65.121 81.26 71.079 29.153 4.597 58.886-6.603 85.426-17.474 22.977-9.412 45.754-21.043 67.14-33.61 15.268-8.971 30.858-17.236 45.7-26.94 23.921-15.639 48.257-34.1 65.875-56.897 8.711-11.273 15.971-23.475 20.157-37.121 4.954-16.148 9.716-33.474 11.087-50.336.906-11.153.904-22.562 1.005-33.761.051-5.701 1.315-11.188 1.415-16.873.108-6.134-.514-10.177-3.993-15.627a91.53 91.53 0 0 0-19.838-22.079c-16.6-13.319-36.593-22.694-57.165-28.144-12.032-3.187-23.629-6.683-34.959-11.891-12.512-5.751-25.556-11.366-37.204-18.764-8.74-5.551-16.471-12.628-23.86-19.838-7.766-7.577-13.221-16.983-20.171-25.233-7.06-8.381-12.641-19.157-21.044-26.304-9.721-8.269-21.222-9.195-33.236-11.505-22.331-4.294-46.591.05-67.403 8.154-13.51 5.261-25.734 12.912-37.77 20.891-12.762 8.461-22.408 19.141-33.424 29.588-12.267 11.634-24.128 23.57-36.185 35.413-8.025 7.882-16.831 15.26-26.891 20.476Z"/></g><g filter="url(#c)"><path fill="url(#d)" d="M431.656 221.008c-21.565-29.512-36.437-61.056-101.077-64.559-70.609.499-110.13 57.763-121.065 86.332-6.76 21.757-18.327 71.926-10.514 98.544 9.767 33.273 50.058 35.72 102.928 59.027 52.871 23.306 74.024 52.644 121.403 71.688 47.379 19.043 86.596 7.921 131.626 6.055 45.03-1.866 63.555-22.701 104.665-85.488 41.109-62.788-18.804-105.1-25.26-124.344-6.456-19.243-71.653-6.466-99.568-3.685-27.914 2.781-81.573-14.057-103.138-43.57Z"/><path stroke="#fff" stroke-linecap="round" stroke-width="3.009" d="M431.656 221.008c-21.565-29.512-36.437-61.056-101.077-64.559-70.609.499-110.13 57.763-121.065 86.332-6.76 21.757-18.327 71.926-10.514 98.544 9.767 33.273 50.058 35.72 102.928 59.027 52.871 23.306 74.024 52.644 121.403 71.688 47.379 19.043 86.596 7.921 131.626 6.055 45.03-1.866 63.555-22.701 104.665-85.488 41.109-62.788-18.804-105.1-25.26-124.344-6.456-19.243-71.653-6.466-99.568-3.685-27.914 2.781-81.573-14.057-103.138-43.57Z"/></g><defs><radialGradient id="b" cx="0" cy="0" r="1" gradientTransform="matrix(364.73297 -305.3591 308.2382 368.17187 291.158 392.572)" gradientUnits="userSpaceOnUse"><stop stop-color="#8665E2"/><stop offset="1" stop-color="#8231EA" stop-opacity="0"/></radialGradient><radialGradient id="d" cx="0" cy="0" r="1" gradientTransform="matrix(299.08347 -144.03882 84.93778 176.36556 416.441 361.754)" gradientUnits="userSpaceOnUse"><stop stop-color="#62EDF6"/><stop offset="1" stop-color="#55C1FD" stop-opacity="0"/></radialGradient><filter id="a" width="685.301" height="618.645" x=".136" y="18.78" color-interpolation-filters="sRGB" filterUnits="userSpaceOnUse"><feFlood flood-opacity="0" result="BackgroundImageFix"/><feBlend in="SourceGraphic" in2="BackgroundImageFix" result="shape"/><feGaussianBlur result="effect1_foregroundBlur_1121_13692" stdDeviation="40.124"/></filter><filter id="c" width="641.042" height="490.072" x="114.636" y="74.696" color-interpolation-filters="sRGB" filterUnits="userSpaceOnUse"><feFlood flood-opacity="0" result="BackgroundImageFix"/><feBlend in="SourceGraphic" in2="BackgroundImageFix" result="shape"/><feGaussianBlur result="effect1_foregroundBlur_1121_13692" stdDeviation="40.124"/></filter></defs></svg>