<svg width="744" height="625" viewBox="0 0 744 625" fill="none" xmlns="http://www.w3.org/2000/svg">
  <g filter="url(#filter0_f_1121_13686)">
  <path d="M609.132 300.194C620.356 282.502 639.625 275.821 657.513 267.085C692.144 238.555 507.94 148.792 411.509 107.476C379.163 93.8194 341.386 73.1748 305.849 86.9877C278.426 97.647 258.425 122.208 241.011 144.884C225.934 164.516 212.143 185.96 200.019 207.513C191.363 222.899 182.075 237.839 174.154 253.643C161.387 279.113 149.678 307.224 145.932 335.701C144.079 349.782 143.943 363.936 147.18 377.794C151.011 394.19 155.597 411.507 162.872 426.722C167.684 436.786 173.407 446.615 178.938 456.315C181.752 461.252 183.415 466.613 186.18 471.562C189.163 476.901 191.727 480.072 197.457 483.023C206.27 487.561 215.831 490.628 225.622 492.098C246.604 495.248 268.531 493.299 288.989 487.677C300.954 484.389 312.699 481.586 325.072 480.391C338.738 479.071 352.791 477.368 366.537 477.9C376.852 478.299 387.062 480.52 397.044 483.026C407.535 485.66 416.952 491.028 427.077 494.651C437.363 498.331 447.576 504.817 458.4 506.761C470.922 509.01 481.296 504.04 492.805 500.005C514.2 492.506 532.923 476.596 546.79 459.177C555.792 447.869 562.488 435.147 568.856 422.235C575.608 408.546 578.563 394.507 582.815 379.981C587.55 363.806 591.783 347.572 596.232 331.323C599.193 320.507 603.081 309.734 609.132 300.194Z" fill="url(#paint0_radial_1121_13686)"/>
  <path d="M609.132 300.194C620.356 282.502 639.625 275.821 657.513 267.085C692.144 238.555 507.94 148.792 411.509 107.476C379.163 93.8194 341.386 73.1748 305.849 86.9877C278.426 97.647 258.425 122.208 241.011 144.884C225.934 164.516 212.143 185.96 200.019 207.513C191.363 222.899 182.075 237.839 174.154 253.643C161.387 279.113 149.678 307.224 145.932 335.701C144.079 349.782 143.943 363.936 147.18 377.794C151.011 394.19 155.597 411.507 162.872 426.722C167.684 436.786 173.407 446.615 178.938 456.315C181.752 461.252 183.415 466.613 186.18 471.562C189.163 476.901 191.727 480.072 197.457 483.023C206.27 487.561 215.831 490.628 225.622 492.098C246.604 495.248 268.531 493.299 288.989 487.677C300.954 484.389 312.699 481.586 325.072 480.391C338.738 479.071 352.791 477.368 366.537 477.9C376.852 478.299 387.062 480.52 397.044 483.026C407.535 485.66 416.952 491.028 427.077 494.651C437.363 498.331 447.576 504.817 458.4 506.761C470.922 509.01 481.296 504.04 492.805 500.005C514.2 492.506 532.923 476.596 546.79 459.177C555.792 447.869 562.488 435.147 568.856 422.235C575.608 408.546 578.563 394.507 582.815 379.981C587.55 363.806 591.783 347.572 596.232 331.323C599.193 320.507 603.081 309.734 609.132 300.194Z" stroke="white" stroke-width="3" stroke-linecap="round"/>
  </g>
  <g filter="url(#filter1_f_1121_13686)">
  <path d="M364.78 437.505C398.161 452.118 426.794 471.837 484.244 442.438C544.83 406.598 550.163 337.44 545.257 307.341C540.17 285.205 524.977 236.179 504.896 217.163C479.794 193.394 443.853 211.492 386.611 217.926C329.37 224.36 296.432 209.69 246.061 217.043C195.689 224.396 167.478 253.647 129.616 277.837C91.7542 302.027 86.2419 329.269 82.3105 403.983C78.3791 478.696 151.22 485.105 166.433 498.448C181.646 511.79 231.411 468.085 254.067 451.689C276.723 435.294 331.4 422.892 364.78 437.505Z" fill="url(#paint1_radial_1121_13686)"/>
  <path d="M364.78 437.505C398.161 452.118 426.794 471.837 484.244 442.438C544.83 406.598 550.163 337.44 545.257 307.341C540.17 285.205 524.977 236.179 504.896 217.163C479.794 193.394 443.853 211.492 386.611 217.926C329.37 224.36 296.432 209.69 246.061 217.043C195.689 224.396 167.478 253.647 129.616 277.837C91.7542 302.027 86.2419 329.269 82.3105 403.983C78.3791 478.696 151.22 485.105 166.433 498.448C181.646 511.79 231.411 468.085 254.067 451.689C276.723 435.294 331.4 422.892 364.78 437.505Z" stroke="white" stroke-width="3" stroke-linecap="round"/>
  </g>
  <defs>
  <filter id="filter0_f_1121_13686" x="63.1245" y="0.92041" width="680.166" height="587.899" filterUnits="userSpaceOnUse" color-interpolation-filters="sRGB">
  <feFlood flood-opacity="0" result="BackgroundImageFix"/>
  <feBlend mode="normal" in="SourceGraphic" in2="BackgroundImageFix" result="shape"/>
  <feGaussianBlur stdDeviation="40" result="effect1_foregroundBlur_1121_13686"/>
  </filter>
  <filter id="filter1_f_1121_13686" x="0.657227" y="123.763" width="627.491" height="458.682" filterUnits="userSpaceOnUse" color-interpolation-filters="sRGB">
  <feFlood flood-opacity="0" result="BackgroundImageFix"/>
  <feBlend mode="normal" in="SourceGraphic" in2="BackgroundImageFix" result="shape"/>
  <feGaussianBlur stdDeviation="40" result="effect1_foregroundBlur_1121_13686"/>
  </filter>
  <radialGradient id="paint0_radial_1121_13686" cx="0" cy="0" r="1" gradientUnits="userSpaceOnUse" gradientTransform="translate(399.788 219.224) rotate(109.861) scale(474.216 478.688)">
  <stop stop-color="#31EAA7"/>
  <stop offset="1" stop-color="#313AEA" stop-opacity="0"/>
  </radialGradient>
  <radialGradient id="paint1_radial_1121_13686" cx="0" cy="0" r="1" gradientUnits="userSpaceOnUse" gradientTransform="translate(307.305 308.61) rotate(124.082) scale(330.938 195.149)">
  <stop stop-color="#FD5555"/>
  <stop offset="1" stop-color="#FD9B55" stop-opacity="0"/>
  </radialGradient>
  </defs>
  </svg>